<?xml version="1.0" standalone="no"?>
<!DOCTYPE svg PUBLIC "-//W3C//DTD SVG 20010904//EN"
 "http://www.w3.org/TR/2001/REC-SVG-20010904/DTD/svg10.dtd">
<svg version="1.0" xmlns="http://www.w3.org/2000/svg"
 width="539.000000pt" height="390.000000pt" viewBox="0 0 539.000000 390.000000"
 preserveAspectRatio="xMidYMid meet">

<g transform="translate(0.000000,390.000000) scale(0.100000,-0.100000)"
fill="#000000" stroke="none">
<path d="M2185 3196 c-47 -16 -76 -36 -131 -91 -67 -66 -81 -88 -115 -175 -19
-48 -19 -243 0 -290 32 -77 97 -164 188 -250 93 -88 113 -99 143 -80 11 7 -4
26 -73 91 -95 88 -170 179 -192 232 -39 95 -37 231 7 323 29 63 97 135 160
169 44 24 68 30 141 33 83 4 91 3 155 -28 63 -31 115 -75 149 -127 21 -32 36
-29 69 15 42 56 92 99 143 124 38 18 63 22 141 22 81 1 102 -3 145 -24 86 -42
146 -114 194 -233 14 -36 14 -188 0 -224 -38 -95 -66 -136 -153 -228 -36 -38
-66 -73 -66 -77 0 -4 9 -12 21 -19 25 -13 48 6 143 121 95 115 126 195 126
321 0 168 -100 327 -246 394 -46 21 -69 25 -154 25 -54 0 -112 -5 -127 -11
-86 -36 -113 -51 -160 -93 l-50 -45 -19 21 c-28 31 -98 77 -149 98 -16 7 -38
16 -47 21 -33 17 -179 8 -243 -15z"/>
<path d="M2950 3006 c0 -21 6 -25 42 -31 55 -10 112 -64 128 -124 6 -24 10
-71 8 -104 -3 -52 0 -62 15 -65 9 -2 19 4 22 12 3 9 8 24 12 34 21 56 7 142
-35 212 -31 51 -96 90 -149 90 -39 0 -43 -2 -43 -24z"/>
<path d="M1525 2831 c-3 -5 -25 -9 -49 -8 -78 3 -88 -25 -66 -185 5 -40 11
-91 14 -113 22 -201 60 -411 85 -468 19 -41 84 -109 331 -342 212 -199 271
-260 285 -290 23 -48 34 -114 35 -193 l0 -72 203 2 c125 2 202 7 203 13 0 6 3
21 7 35 22 88 33 368 16 429 -23 86 -151 466 -197 582 -17 43 -40 59 -86 59
-60 0 -80 -23 -73 -87 10 -80 19 -123 28 -129 5 -3 9 -15 9 -27 0 -12 7 -42
16 -67 14 -41 14 -45 -2 -57 -23 -16 -73 -17 -111 0 -17 6 -88 67 -158 135
l-128 123 -5 70 c-2 38 -9 72 -13 75 -5 3 -9 32 -9 64 0 32 -4 62 -10 65 -5 3
-10 23 -10 44 0 42 -19 64 -62 75 -28 6 -31 16 -42 124 -5 45 -32 72 -73 72
-21 0 -33 5 -33 14 0 27 -41 66 -70 66 -16 0 -31 -4 -35 -9z"/>
<path d="M3718 2823 c-9 -10 -18 -27 -20 -38 -2 -11 -12 -21 -23 -23 -53 -8
-66 -14 -79 -40 -8 -16 -18 -56 -22 -90 -6 -58 -8 -62 -40 -72 -40 -14 -64
-56 -64 -116 0 -23 -4 -54 -10 -68 -5 -14 -10 -43 -11 -63 -1 -21 -6 -45 -10
-53 -4 -8 -9 -35 -12 -59 -4 -41 -13 -52 -108 -144 -57 -54 -124 -112 -148
-128 -50 -32 -105 -38 -136 -15 -17 13 -18 18 -8 48 27 74 83 284 83 309 0 35
-42 69 -85 69 -44 0 -70 -31 -101 -121 -14 -40 -29 -83 -34 -94 -4 -11 -17
-49 -28 -85 -12 -36 -46 -137 -77 -225 -51 -148 -56 -169 -62 -275 -3 -71 -1
-148 7 -200 6 -47 14 -106 17 -132 l6 -48 202 0 c176 0 204 2 209 16 3 9 6 58
6 110 0 74 4 103 19 132 19 37 179 199 446 451 149 141 170 166 185 222 12 45
39 192 51 284 6 39 14 102 20 140 6 39 12 99 15 135 3 36 10 75 15 86 8 16 8
28 -2 45 -20 38 -41 49 -80 43 -22 -3 -40 -1 -44 5 -10 17 -60 13 -77 -6z"/>
<path d="M2454 2149 c9 -36 22 -48 103 -105 50 -35 97 -64 103 -64 14 0 85 46
143 93 38 32 77 89 77 113 0 13 -29 -4 -111 -66 -52 -38 -100 -70 -107 -70
-14 0 -72 38 -157 102 -27 21 -53 38 -56 38 -3 0 -1 -18 5 -41z"/>
<path d="M2110 545 c0 -188 1 -195 20 -195 19 0 20 7 20 195 0 188 -1 195 -20
195 -19 0 -20 -7 -20 -195z"/>
<path d="M1331 703 c0 -10 19 -92 42 -183 40 -158 43 -165 68 -168 26 -3 27 0
66 150 46 174 37 176 83 -22 30 -134 29 -130 56 -130 13 0 24 1 24 3 0 1 23
81 50 177 28 96 50 179 50 183 0 5 -10 7 -22 5 -20 -3 -27 -19 -59 -146 -20
-78 -38 -145 -41 -147 -3 -3 -20 62 -38 145 -33 146 -35 150 -60 150 -25 0
-27 -5 -65 -157 -21 -86 -41 -150 -44 -143 -2 8 -19 78 -36 155 -28 124 -34
140 -53 143 -16 2 -22 -2 -21 -15z"/>
<path d="M3470 705 c-15 -18 -5 -35 20 -35 23 0 32 13 24 34 -8 20 -28 21 -44
1z"/>
<path d="M2867 679 c-10 -6 -17 -22 -17 -39 0 -23 -5 -30 -20 -30 -11 0 -20
-7 -20 -15 0 -8 9 -15 19 -15 17 0 19 -10 23 -101 3 -113 13 -129 75 -129 42
0 44 22 3 37 l-30 11 0 91 0 91 30 0 c20 0 30 5 30 15 0 10 -10 15 -30 15 -28
0 -30 3 -30 34 0 40 -8 48 -33 35z"/>
<path d="M3880 646 c0 -29 -4 -36 -20 -36 -11 0 -20 -7 -20 -15 0 -8 9 -15 19
-15 17 0 19 -10 23 -101 3 -112 15 -133 72 -127 40 4 43 21 6 35 l-30 11 0 91
0 91 30 0 c42 0 40 28 -2 32 -29 3 -33 7 -33 33 -1 23 -6 31 -23 33 -19 3 -22
-1 -22 -32z"/>
<path d="M1855 600 c-63 -25 -93 -115 -61 -182 41 -87 170 -92 220 -8 20 35
21 102 1 140 -26 51 -102 74 -160 50z m98 -40 c48 -38 44 -130 -7 -165 -54
-38 -116 6 -116 82 0 52 13 81 43 93 35 14 52 12 80 -10z"/>
<path d="M2278 594 c-36 -19 -61 -69 -60 -120 0 -53 15 -80 55 -104 96 -59
209 22 192 136 -12 85 -109 131 -187 88z m121 -38 c7 -8 16 -36 18 -63 5 -42
1 -53 -22 -81 -32 -39 -63 -41 -102 -8 -24 21 -28 32 -28 76 0 45 4 55 29 77
23 19 36 23 60 19 17 -4 37 -13 45 -20z"/>
<path d="M2540 480 l0 -130 25 0 c25 0 25 1 25 89 0 102 15 134 65 134 50 0
65 -32 65 -134 0 -88 0 -89 25 -89 25 0 25 1 25 78 0 42 -5 93 -10 113 -18 66
-84 88 -147 49 -33 -20 -33 -20 -33 0 0 13 -7 20 -20 20 -19 0 -20 -7 -20
-130z"/>
<path d="M3053 600 c-42 -17 -26 -31 26 -24 42 5 52 3 70 -15 24 -24 24 -45 0
-48 -100 -13 -139 -39 -139 -93 0 -61 65 -89 130 -55 27 14 30 14 30 0 0 -8 9
-15 20 -15 19 0 20 7 20 95 0 104 -10 137 -47 154 -28 13 -79 13 -110 1z m117
-147 c0 -56 -68 -93 -104 -57 -36 36 1 84 64 84 37 0 40 -2 40 -27z"/>
<path d="M3290 480 l0 -130 25 0 c25 0 25 1 25 84 0 69 4 88 21 110 11 14 29
26 40 26 12 0 19 7 19 20 0 28 -28 25 -62 -7 l-28 -27 0 27 c0 20 -5 27 -20
27 -19 0 -20 -7 -20 -130z"/>
<path d="M3470 480 l0 -130 25 0 25 0 0 130 0 130 -25 0 -25 0 0 -130z"/>
<path d="M3622 599 c-37 -14 -16 -29 34 -22 35 4 49 2 64 -12 36 -33 26 -52
-32 -57 -42 -4 -57 -11 -80 -37 -34 -39 -35 -64 -3 -96 28 -29 80 -33 111 -10
25 19 34 19 34 0 0 -9 9 -15 21 -15 21 0 21 4 17 106 -3 102 -5 107 -31 130
-30 26 -90 32 -135 13z m118 -153 c0 -52 -64 -88 -98 -54 -35 35 5 88 65 88
31 0 33 -2 33 -34z"/>
</g>
</svg>
